<svg version="1.1" xmlns="http://www.w3.org/2000/svg" width="768" height="768" viewBox="0 0 768 768">
<title></title>
<g id="icomoon-ignore">
</g>
<path fill="#000" d="M512 224c-61.856 0-117.888 25.12-158.4 65.6s-65.6 96.544-65.6 158.4v224c0 17.664 14.336 32 32 32h128c17.664 0 32-14.336 32-32v-224c0-8.832 3.552-16.8 9.376-22.624s13.792-9.376 22.624-9.376 16.8 3.552 22.624 9.376 9.376 13.792 9.376 22.624v224c0 17.664 14.336 32 32 32h128c17.664 0 32-14.336 32-32v-224c0-61.856-25.12-117.888-65.6-158.4s-96.544-65.6-158.4-65.6zM512 288c44.192 0 84.16 17.888 113.152 46.848s46.848 68.96 46.848 113.152v192h-64v-192c0-26.496-10.784-50.56-28.128-67.872s-41.376-28.128-67.872-28.128-50.56 10.784-67.872 28.128-28.128 41.376-28.128 67.872v192h-64v-192c0-44.192 17.888-84.16 46.848-113.152s68.96-46.848 113.152-46.848zM64 256c-17.664 0-32 14.336-32 32v384c0 17.664 14.336 32 32 32h128c17.664 0 32-14.336 32-32v-384c0-17.664-14.336-32-32-32zM96 320h64v320h-64zM224 128c0-26.496-10.784-50.56-28.128-67.872s-41.376-28.128-67.872-28.128-50.56 10.784-67.872 28.128-28.128 41.376-28.128 67.872 10.784 50.56 28.128 67.872 41.376 28.128 67.872 28.128 50.56-10.784 67.872-28.128 28.128-41.376 28.128-67.872zM160 128c0 8.832-3.552 16.8-9.376 22.624s-13.792 9.376-22.624 9.376-16.8-3.552-22.624-9.376-9.376-13.792-9.376-22.624 3.552-16.8 9.376-22.624 13.792-9.376 22.624-9.376 16.8 3.552 22.624 9.376 9.376 13.792 9.376 22.624z"></path>
</svg>
